<!-- Generated by IcoMoon.io -->
<svg version="1.1" xmlns="http://www.w3.org/2000/svg" width="30" height="20" viewBox="0 0 30 20">
<title>arrow-right</title>
<path fill="#444" d="M20.077 2.256l8 8v-1.179l-8 8c-0.325 0.325-0.325 0.853 0 1.179s0.853 0.325 1.179 0l8-8c0.325-0.325 0.325-0.853 0-1.179l-8-8c-0.325-0.325-0.853-0.325-1.179 0s-0.325 0.853 0 1.179v0z"></path>
<path fill="#444" d="M28.667 8.833h-27c-0.46 0-0.833 0.373-0.833 0.833s0.373 0.833 0.833 0.833h27c0.46 0 0.833-0.373 0.833-0.833s-0.373-0.833-0.833-0.833v0z"></path>
</svg>
