<!-- Generated by IcoMoon.io -->
<svg version="1.1" xmlns="http://www.w3.org/2000/svg" width="20" height="20" viewBox="0 0 20 20">
<title>email</title>
<path fill="#444" d="M0.767 8.592c-0.121 0.050-0.201 0.168-0.2 0.299s0.081 0.249 0.202 0.298l6.748 2.724 11.855-10.988-18.606 7.666z"></path>
<path fill="#444" d="M7.752 12.577v5.665c0 0.145 0.096 0.272 0.236 0.311 0.028 0.008 0.057 0.012 0.086 0.012 0.111 0 0.217-0.058 0.276-0.157l2.775-4.621 5.068 2.708c0.047 0.026 0.099 0.038 0.152 0.038 0.046 0 0.092-0.010 0.135-0.029 0.092-0.043 0.158-0.125 0.18-0.224l3.339-15.057-12.248 11.352z"></path>
</svg>
