<!-- Generated by IcoMoon.io -->
<svg version="1.1" xmlns="http://www.w3.org/2000/svg" width="20" height="20" viewBox="0 0 20 20">
<title>google</title>
<path fill="#444" d="M6.749 18.829c-2.339 0-4.026-1.491-4.026-3.281 0-1.755 2.095-3.217 4.432-3.191 0.544 0.007 1.053 0.094 1.514 0.245 1.268 0.89 2.179 1.392 2.436 2.405 0.049 0.206 0.075 0.416 0.075 0.632 0 1.791-1.146 3.19-4.431 3.19zM7.363 8.329c-1.569-0.048-3.060-1.768-3.33-3.843s0.781-3.664 2.35-3.617c1.567 0.048 3.060 1.712 3.33 3.789 0.27 2.075-0.781 3.72-2.35 3.672zM10.614 11.402c-0.55-0.393-1.601-1.346-1.601-1.908 0-0.659 0.186-0.982 1.168-1.755 1.007-0.793 1.72-1.908 1.72-3.203 0-1.544-0.682-3.048-1.963-3.544h1.93l1.363-0.992h-6.090c-2.728 0-5.298 2.084-5.298 4.497 0 2.467 1.861 4.457 4.638 4.457 0.194 0 0.38-0.003 0.564-0.017-0.179 0.347-0.31 0.74-0.31 1.145 0 0.686 0.366 1.243 0.83 1.696-0.35 0-0.689 0.010-1.055 0.010-3.381 0-5.984 2.169-5.984 4.42 0 2.215 2.854 3.601 6.234 3.601 3.854 0 5.984-2.204 5.984-4.42 0-1.776-0.521-2.841-2.13-3.987zM19.474 8.509h-2.37v-2.388h-1.908v2.388h-2.37v1.923h2.37v2.388h1.908v-2.388h2.37v-1.923z"></path>
</svg>
