<!-- Generated by IcoMoon.io -->
<svg version="1.1" xmlns="http://www.w3.org/2000/svg" width="20" height="20" viewBox="0 0 20 20">
<title>linkedin</title>
<path fill="#444" d="M0.504 6.413h3.898v13.586h-3.898v-13.586zM2.354 4.714h-0.028c-1.411 0-2.326-1.039-2.326-2.354 0-1.342 0.942-2.36 2.381-2.36 1.438 0 2.322 1.015 2.351 2.356 0 1.315-0.913 2.358-2.378 2.358v0zM20 20h-4.42v-7.032c0-1.84-0.691-3.095-2.212-3.095-1.163 0-1.81 0.846-2.111 1.665-0.113 0.292-0.095 0.7-0.095 1.11v7.352h-4.379c0 0 0.056-12.455 0-13.587h4.379v2.132c0.259-0.932 1.658-2.263 3.891-2.263 2.77 0 4.947 1.955 4.947 6.162v7.555z"></path>
</svg>
