<!-- Generated by IcoMoon.io -->
<svg version="1.1" xmlns="http://www.w3.org/2000/svg" width="20" height="20" viewBox="0 0 20 20">
<title>lock</title>
<path fill="#444" d="M14.669 8.939v-4.272c0-2.443-2.384-4.667-5.001-4.667s-5.001 2.224-5.001 4.667v4.272c-1.034 1.176-1.667 2.712-1.667 4.396 0 3.677 2.991 6.668 6.668 6.668s6.668-2.991 6.668-6.668c0-1.684-0.633-3.221-1.667-4.396v0zM10.001 13.909v2.427c0 0.184-0.149 0.333-0.333 0.333s-0.333-0.149-0.333-0.333v-2.427c-0.199-0.115-0.333-0.328-0.333-0.573 0-0.367 0.299-0.667 0.667-0.667s0.667 0.299 0.667 0.667c0 0.245-0.135 0.458-0.333 0.573v0zM14.002 8.279c-1.167-1.002-2.68-1.611-4.334-1.611s-3.167 0.609-4.334 1.611v-3.611c0-2.056 2.106-4.001 4.334-4.001s4.334 1.944 4.334 4.001v3.611z"></path>
</svg>
