<!-- Generated by IcoMoon.io -->
<svg version="1.1" xmlns="http://www.w3.org/2000/svg" width="20" height="20" viewBox="0 0 20 20">
<title>logo</title>
<path fill="#444" d="M8.545 6.414c-0.362-0.161-0.734-0.281-1.042-0.281-2.177 0-3.941 1.77-3.941 3.954s6.439 7.557 6.439 7.557c0 0 6.439-5.373 6.439-7.557s-1.765-3.954-3.941-3.954c-0.282 0-0.616 0.1-0.947 0.24l-0.15 0.498c-0.025 0.082-0.101 0.139-0.187 0.139h-0.195v0.757c1.136 0.404 1.953 1.487 1.953 2.759 0 1.342-2.461 5.583-2.566 5.763-0.035 0.060-0.1 0.097-0.169 0.097v-4.688c0-0.009-0.004-0.017-0.005-0.026 0.339-0.085 0.591-0.39 0.591-0.755 0-0.432-0.35-0.781-0.781-0.781s-0.781 0.35-0.781 0.781c0 0.366 0.252 0.67 0.591 0.756-0.002 0.009-0.005 0.016-0.005 0.026v4.688c-0.068 0-0.132-0.036-0.167-0.094-0.105-0.172-2.568-4.233-2.568-5.766 0-1.273 0.817-2.356 1.953-2.759v-0.757h-0.195c-0.086 0-0.163-0.057-0.187-0.139l-0.137-0.457z"></path>
<path fill="#444" d="M2.667 8.222c-1.473 0-2.667 1.194-2.667 2.667s1.194 2.667 2.667 2.667v0z"></path>
<path fill="#444" d="M17.333 8.222c1.473 0 2.667 1.194 2.667 2.667s-1.194 2.667-2.667 2.667v0z"></path>
</svg>
