<!-- Generated by IcoMoon.io -->
<svg version="1.1" xmlns="http://www.w3.org/2000/svg" width="20" height="20" viewBox="0 0 20 20">
<title>pause</title>
<path fill="#444" d="M10 19.844c5.437 0 9.844-4.407 9.844-9.844s-4.407-9.844-9.844-9.844c-5.437 0-9.844 4.407-9.844 9.844s4.407 9.844 9.844 9.844zM10.788 7.64c0-0.219 0.175-0.396 0.397-0.396h0.78c0.22 0 0.397 0.177 0.397 0.396v4.72c0 0.219-0.175 0.396-0.397 0.396h-0.78c-0.22 0-0.397-0.177-0.397-0.396v-4.72zM7.736 7.64c0-0.219 0.175-0.396 0.397-0.396h0.78c0.22 0 0.397 0.177 0.397 0.396v4.72c0 0.219-0.175 0.396-0.397 0.396h-0.78c-0.22 0-0.397-0.177-0.397-0.396v-4.72z"></path>
</svg>
