<!-- Generated by IcoMoon.io -->
<svg version="1.1" xmlns="http://www.w3.org/2000/svg" width="20" height="20" viewBox="0 0 20 20">
<title>pen</title>
<path fill="#444" d="M12.977 7.742l0.752-1.115 0.288 0.194c0.127 0.085 0.295 0.078 0.414-0.019l2.805-2.296c0.085-0.070 0.132-0.176 0.127-0.285s-0.062-0.21-0.153-0.271l-5.181-3.495c-0.092-0.062-0.205-0.077-0.309-0.040s-0.184 0.12-0.216 0.225l-1.078 3.461c-0.046 0.146 0.010 0.305 0.138 0.391l0.288 0.194-0.752 1.115c-2.076-0.535-4.356 0.249-5.621 2.125-1.524 2.26-1.931 10.692-1.948 11.050-0.006 0.121 0.052 0.236 0.153 0.304l4.66-6.909c0.009-0.014 0.022-0.022 0.033-0.033-0.415-0.463-0.484-1.162-0.12-1.701 0.429-0.636 1.292-0.804 1.928-0.375s0.804 1.292 0.375 1.928c-0.363 0.539-1.038 0.737-1.622 0.525-0.007 0.014-0.009 0.030-0.018 0.044l-4.66 6.909c0.102 0.069 0.234 0.078 0.345 0.024 0.333-0.161 8.176-3.965 9.51-5.942 1.265-1.876 1.137-4.284-0.136-6.008v0zM12.513 7.189c-0.241-0.245-0.51-0.47-0.805-0.669s-0.605-0.365-0.922-0.496l0.641-0.951 1.727 1.165-0.641 0.951z"></path>
</svg>
