<!-- Generated by IcoMoon.io -->
<svg version="1.1" xmlns="http://www.w3.org/2000/svg" width="20" height="20" viewBox="0 0 20 20">
<title>search</title>
<path fill="#444" d="M12.761 14.223l5.474 5.474c0.404 0.404 1.059 0.404 1.463 0s0.404-1.059 0-1.463l-5.474-5.474c1.028-1.337 1.639-3.012 1.639-4.829 0-4.38-3.551-7.931-7.931-7.931s-7.931 3.551-7.931 7.931c0 4.38 3.551 7.931 7.931 7.931 1.817 0 3.492-0.611 4.829-1.639zM13.794 7.931c0 3.237-2.625 5.862-5.862 5.862s-5.862-2.624-5.862-5.862c0-3.238 2.625-5.862 5.862-5.862s5.862 2.625 5.862 5.862z"></path>
</svg>
