<!-- Generated by IcoMoon.io -->
<svg version="1.1" xmlns="http://www.w3.org/2000/svg" width="20" height="20" viewBox="0 0 20 20">
<title>sketch</title>
<path fill="#444" d="M17.163 2.462l-3.493-1.496h-7.343l-3.493 1.496-2.833 3.231 9.999 13.345 9.998-13.345-2.833-3.231zM18.794 5.828l-2.639 2.035-2.101-3.051 2.955-1.405 1.785 2.421zM14.878 8.467h-9.76l2-3.54h5.76l2 3.54zM12.87 1.628l2.7 1.16-2.711 1.274h-5.722l-2.711-1.274 2.67-1.161 5.774 0.001zM2.954 3.408l2.955 1.405-2.101 3.051-2.639-2.035 1.784-2.421zM2.243 7.829l1.691 1.322 4.041 6.567-5.732-7.889zM5.353 9.545h9.29l-4.644 8.252-4.645-8.252zM11.988 15.718l4.041-6.567 1.691-1.322-5.732 7.889z"></path>
</svg>
