<!-- Generated by IcoMoon.io -->
<svg version="1.1" xmlns="http://www.w3.org/2000/svg" width="20" height="20" viewBox="0 0 20 20">
<title>tag</title>
<path fill="#444" d="M6.577 2.096c-0.063-0.061-0.147-0.095-0.234-0.095h-6c-0.184 0-0.333 0.149-0.333 0.333v5.667c0 0.089 0.035 0.174 0.098 0.236l11.768 11.667c0.063 0.062 0.148 0.097 0.235 0.097 0.023 0 0.045-0.003 0.067-0.007 0.109-0.023 0.201-0.099 0.242-0.202l1.628-4.071 4.070-1.628c0.105-0.042 0.181-0.133 0.203-0.243s-0.012-0.225-0.093-0.304l-11.652-11.449zM4.125 7.059c-0.695 0-1.261-0.565-1.261-1.261s0.565-1.261 1.261-1.261c0.696 0 1.261 0.565 1.261 1.261s-0.565 1.261-1.261 1.261v0z"></path>
<path fill="#444" d="M19.745 11.351l-11-10.927c-0.063-0.062-0.147-0.097-0.235-0.097h-6c-0.185 0-0.333 0.149-0.333 0.333s0.149 0.333 0.333 0.333h5.863l10.518 10.449-0.747 0.249c-0.175 0.059-0.269 0.247-0.211 0.422 0.047 0.139 0.177 0.228 0.317 0.228 0.035 0 0.070-0.005 0.105-0.017l1.261-0.42c0.109-0.037 0.193-0.128 0.219-0.241s-0.007-0.231-0.089-0.313z"></path>
</svg>
