<!-- Generated by IcoMoon.io -->
<svg version="1.1" xmlns="http://www.w3.org/2000/svg" width="20" height="20" viewBox="0 0 20 20">
<title>time</title>
<path fill="#444" d="M9.677 0c-5.336 0-9.677 4.341-9.677 9.677s4.341 9.677 9.677 9.677c5.336 0 9.677-4.341 9.677-9.677s-4.341-9.677-9.677-9.677v0zM14.387 14.371c-0.064 0.068-0.15 0.103-0.236 0.103-0.079 0-0.157-0.028-0.22-0.086l-4.796-4.475c-0.066-0.061-0.103-0.146-0.103-0.235v-4.474c0-0.178 0.145-0.323 0.323-0.323s0.323 0.145 0.323 0.323v4.334l4.694 4.377c0.13 0.123 0.137 0.326 0.016 0.456v0z"></path>
</svg>
