<!-- Generated by IcoMoon.io -->
<svg version="1.1" xmlns="http://www.w3.org/2000/svg" width="20" height="20" viewBox="0 0 20 20">
<title>twitter</title>
<path fill="#444" d="M17.644 3.821c0.848-0.535 1.498-1.383 1.803-2.393-0.794 0.496-1.67 0.856-2.606 1.050-0.747-0.842-1.814-1.367-2.995-1.367-2.266 0-4.102 1.938-4.102 4.327 0 0.339 0.034 0.67 0.104 0.986-3.409-0.181-6.432-1.902-8.457-4.522-0.353 0.641-0.555 1.384-0.555 2.177 0 1.501 0.724 2.825 1.825 3.603-0.673-0.022-1.305-0.219-1.859-0.541v0.053c0 2.097 1.413 3.847 3.293 4.243-0.345 0.102-0.707 0.152-1.082 0.152-0.264 0-0.522-0.026-0.771-0.077 0.521 1.718 2.037 2.971 3.833 3.005-1.405 1.161-3.174 1.852-5.096 1.852-0.331 0-0.659-0.019-0.979-0.059 1.816 1.227 3.973 1.944 6.29 1.944 7.548 0 11.673-6.594 11.673-12.313 0-0.188-0.002-0.375-0.011-0.56 0.802-0.61 1.499-1.373 2.047-2.241-0.736 0.344-1.527 0.577-2.356 0.681z"></path>
</svg>
