<!-- Generated by IcoMoon.io -->
<svg version="1.1" xmlns="http://www.w3.org/2000/svg" width="20" height="20" viewBox="0 0 20 20">
<title>user</title>
<path fill="#444" d="M18.507 15.587c-0.577-1.151-2.472-1.845-5.094-2.805-0.371-0.135-0.756-0.277-1.155-0.426v-2.086c0.262-0.286 0.925-1.139 0.99-2.464 0.183-0.139 0.328-0.403 0.412-0.759 0.134-0.566 0.063-1.24-0.354-1.615 0.028-0.074 0.063-0.161 0.095-0.243 0.308-0.777 0.883-2.226 0.659-3.35-0.254-1.271-2.104-1.839-3.825-1.839-1.258 0-2.788 0.315-3.225 1.183-0.484 0.045-0.854 0.236-1.102 0.571-0.682 0.919-0.177 2.585 0.094 3.48 0.019 0.063 0.039 0.13 0.056 0.187-0.428 0.372-0.501 1.054-0.366 1.626 0.084 0.357 0.23 0.62 0.412 0.759 0.064 1.299 0.712 2.065 0.99 2.337v2.213c-0.399 0.149-0.785 0.291-1.157 0.426-2.623 0.96-4.517 1.654-5.092 2.805-0.838 1.676-0.847 3.374-0.847 3.445 0 0.177 0.144 0.323 0.322 0.323h18.71c0.178 0 0.323-0.145 0.323-0.323 0-0.072-0.010-1.769-0.848-3.445z"></path>
</svg>
