<!-- Generated by IcoMoon.io -->
<svg version="1.1" xmlns="http://www.w3.org/2000/svg" width="20" height="20" viewBox="0 0 20 20">
<title>volume-mute</title>
<path fill="#444" d="M10.058 16.598c0.048 0.045 0.111 0.068 0.174 0.068 0.034 0 0.070-0.007 0.103-0.022 0.093-0.041 0.154-0.133 0.154-0.235v-7.528l-4.22 4.205 3.789 3.512zM3.541 12.563h0.693l6.255-6.233v-2.722c0-0.104-0.063-0.197-0.159-0.237s-0.205-0.018-0.279 0.055l-4.541 4.519h-2.158c-0.63 0-1.071 0.527-1.071 1.287l0.033 2.104c0 0.677 0.55 1.227 1.227 1.227zM12.424 7.605c-0.115-0.083-0.275-0.057-0.359 0.056-0.083 0.115-0.058 0.275 0.057 0.359 0.542 0.394 1.188 1.071 1.188 2.056 0 0.987-0.646 1.663-1.188 2.057-0.115 0.083-0.14 0.244-0.057 0.358 0.050 0.069 0.128 0.106 0.208 0.106 0.052 0 0.105-0.015 0.15-0.048 0.903-0.656 1.4-1.534 1.4-2.472s-0.497-1.815-1.399-2.471zM14.75 3.36h-0.001c-0.151-0.152-0.438-0.114-0.638 0.085l-11.59 11.549c-0.2 0.199-0.239 0.487-0.087 0.639s0.439 0.114 0.639-0.086l11.589-11.548c0.2-0.199 0.239-0.487 0.088-0.639z"></path>
</svg>
