<!-- Generated by IcoMoon.io -->
<svg version="1.1" xmlns="http://www.w3.org/2000/svg" width="20" height="20" viewBox="0 0 20 20">
<title>volume-low</title>
<path fill="#444" d="M12.377 7.626c-0.114-0.083-0.273-0.057-0.356 0.056s-0.058 0.273 0.057 0.356c0.538 0.391 1.18 1.064 1.18 2.043 0 0.98-0.642 1.652-1.18 2.043-0.114 0.083-0.139 0.242-0.057 0.356 0.050 0.069 0.127 0.105 0.206 0.105 0.052 0 0.104-0.016 0.149-0.048 0.897-0.651 1.39-1.523 1.39-2.456 0-0.931-0.494-1.803-1.39-2.455zM10.331 3.419c-0.095-0.039-0.204-0.018-0.278 0.055l-4.512 4.49h-2.144c-0.626 0-1.063 0.524-1.063 1.278l0.033 2.090c0 0.672 0.546 1.219 1.219 1.219h2.149l4.326 4.010c0.048 0.044 0.11 0.068 0.173 0.068 0.035 0 0.069-0.007 0.102-0.021 0.092-0.040 0.153-0.132 0.153-0.233v-12.72c0-0.103-0.062-0.196-0.157-0.235z"></path>
</svg>
